# xmcd CD database file generated by Grip 2.95
# 
# Track frame offsets:
#       150
#       20305
#       35992
#       48477
#       69077
#       86255
#       101107
#       114500
#       132425
# 
# Disc length: 1915 seconds
# 
# Revision: 3
# Processed by: cddbd v1.4b42PL0 Copyright (c) Steve Scherf et al.
# Submitted via: Grip 2.95
# 
DISCID=73077909
DTITLE=Proud Mary - The Same Old Blues
DYEAR=1900
DGENRE=
TTITLE0=Give a Little Love
TTITLE1=Very Best Friend
TTITLE2=Dont It All Look Ugly
TTITLE3=All Good Things
TTITLE4=Track Somewhere Down the Line
TTITLE5=Time On Our Hands
TTITLE6=Just For You
TTITLE7=Salt of the Earth
TTITLE8=Same Old Blues
EXTD=
EXTT0=
EXTT1=
EXTT2=
EXTT3=
EXTT4=
EXTT5=
EXTT6=
EXTT7=
EXTT8=
PLAYORDER=
